HIERARCHY
ROOT Hips
{
	OFFSET	0.00	0.00	0.00
	CHANNELS 6 Xposition Yposition Zposition Zrotation Xrotation Yrotation
	JOINT LeftUpLeg
	{
		OFFSET	 0.126116	-0.014019	-0.065224
		CHANNELS 3 Zrotation Xrotation Yrotation
		JOINT LeftLeg
		{
			OFFSET	 0.000000	 0.000000	 0.569914
			CHANNELS 3 Zrotation Xrotation Yrotation
			JOINT LeftFoot
			{
				OFFSET	 0.000000	 0.000000	 0.544423
				CHANNELS 3 Zrotation Xrotation Yrotation
				JOINT LeftToeBase
				{
					OFFSET	 0.000000	 0.000000	 0.207117
					CHANNELS 3 Zrotation Xrotation Yrotation
					End Site
					{
						OFFSET	 0.000000	 0.000000	 0.207117
					}
				}
			}
		}
	}
	JOINT RightUpLeg
	{
		OFFSET	-0.124023	-0.008373	-0.065224
		CHANNELS 3 Zrotation Xrotation Yrotation
		JOINT RightLeg
		{
			OFFSET	 0.000000	 0.000000	 0.570047
			CHANNELS 3 Zrotation Xrotation Yrotation
			JOINT RightFoot
			{
				OFFSET	 0.000000	 0.000000	 0.544354
				CHANNELS 3 Zrotation Xrotation Yrotation
				JOINT RightToeBase
				{
					OFFSET	 0.000000	 0.000000	 0.207540
					CHANNELS 3 Zrotation Xrotation Yrotation
					End Site
					{
						OFFSET	 0.000000	 0.000000	 0.207540
					}
				}
			}
		}
	}
	JOINT Spine
	{
		OFFSET	 0.000184	-0.007763	 0.117403
		CHANNELS 3 Zrotation Xrotation Yrotation
		JOINT Spine1
		{
			OFFSET	 0.000000	 0.000000	 0.137269
			CHANNELS 3 Zrotation Xrotation Yrotation
			JOINT Spine2
			{
				OFFSET	 0.000000	 0.000000	 0.156879
				CHANNELS 3 Zrotation Xrotation Yrotation
				JOINT LeftShoulder
				{
					OFFSET	 0.080501	-0.002496	 0.160144
					CHANNELS 3 Zrotation Xrotation Yrotation
					JOINT LeftArm
					{
						OFFSET	 0.000000	 0.000000	 0.164363
						CHANNELS 3 Zrotation Xrotation Yrotation
						JOINT LeftForeArm
						{
							OFFSET	 0.000000	 0.000000	 0.364576
							CHANNELS 3 Zrotation Xrotation Yrotation
							JOINT LeftHand
							{
								OFFSET	 0.000000	 0.000000	 0.360812
								CHANNELS 3 Zrotation Xrotation Yrotation
								JOINT LeftHandIndex1
								{
									OFFSET	 0.000000	 0.000000	 0.086006
									CHANNELS 3 Zrotation Xrotation Yrotation
									JOINT LeftHandIndex2
									{
										OFFSET	 0.000000	 0.000000	 0.047237
										CHANNELS 3 Zrotation Xrotation Yrotation
										JOINT LeftHandIndex3
										{
											OFFSET	-0.004284	-0.000551	 0.038165
											CHANNELS 3 Zrotation Xrotation Yrotation
											End Site
											{
												OFFSET	-0.004284	-0.000551	 0.038165
											}
										}
									}
								}
							}
						}
					}
				}
				JOINT Neck
				{
					OFFSET	 0.000000	 0.000000	 0.176489
					CHANNELS 3 Zrotation Xrotation Yrotation
					JOINT Head
					{
						OFFSET	 0.000000	-0.001747	 0.077940
						CHANNELS 3 Zrotation Xrotation Yrotation
						End Site
						{
							OFFSET	 0.000000	-0.001747	 0.077940
						}
					}
				}
				JOINT RightShoulder
				{
					OFFSET	-0.080363	 0.000306	 0.159706
					CHANNELS 3 Zrotation Xrotation Yrotation
					JOINT RightArm
					{
						OFFSET	 0.000000	 0.000000	 0.164196
						CHANNELS 3 Zrotation Xrotation Yrotation
						JOINT RightForeArm
						{
							OFFSET	 0.000000	 0.000000	 0.365611
							CHANNELS 3 Zrotation Xrotation Yrotation
							JOINT RightHand
							{
								OFFSET	 0.000000	 0.000000	 0.360648
								CHANNELS 3 Zrotation Xrotation Yrotation
								JOINT RightHandIndex1
								{
									OFFSET	 0.000000	 0.000000	 0.069977
									CHANNELS 3 Zrotation Xrotation Yrotation
									JOINT RightHandIndex2
									{
										OFFSET	 0.000000	 0.000000	 0.052305
										CHANNELS 3 Zrotation Xrotation Yrotation
										JOINT RightHandIndex3
										{
											OFFSET	 0.009002	-0.000782	 0.042196
											CHANNELS 3 Zrotation Xrotation Yrotation
											End Site
											{
												OFFSET	 0.009002	-0.000782	 0.042196
											}
										}
									}
								}
							}
						}
					}
				}
			}
		}
	}
}
MOTION
Frames:    5
Frame Time: 0.03333334
-0.408739	 0.209508	 1.257688	-175.747500	 12.741060	 12.387490	 21.174030	-9.853630	 177.917500	-8.016473	-38.422630	-5.355337	 113.582600	 70.356570	-127.509500	-2.385833	 28.452760	 0.000004	-6.983272	-46.819270	 159.041200	 5.633513	-49.445370	 3.125643	-5.180861	 69.659190	 22.255820	 2.384659	 28.388700	-0.000001	 51.116710	-22.688840	 21.571970	 51.272140	 19.458610	 6.045733	-21.027780	-5.846274	-23.659290	-91.776200	 78.527360	-180.000000	 3.402668	 40.366570	 1.049345	-2.926298	-2.944793	-107.714000	 4.386213	-23.247470	-0.703146	-4.130319	 21.525730	 0.991547	-5.167930	 0.731704	 3.519349	-1.378229	 35.397820	-2.634230	-18.152490	 7.370718	 7.622580	-26.963190	-21.716110	-16.763660	 89.782070	 78.203870	-180.000000	 98.820410	 8.355905	 1.219076	-16.518380	-7.510581	 35.282310	-82.782260	 3.859693	-93.825600	 5.716227	 19.173190	-3.685159	 5.027444	 0.246877	-9.377972	-2.350882	 35.473990	 5.254307
-0.410846	 0.214080	 1.258773	-175.206700	 12.511340	 11.949080	 21.622000	-8.659904	 178.021600	-7.939948	-37.351850	-5.181850	 113.168500	 70.507840	-126.900500	-2.385833	 28.452760	 0.000004	-6.526481	-46.158790	 159.887100	 5.904996	-49.501060	 3.335156	-5.301154	 70.160680	 22.033110	 2.384659	 28.388700	-0.000001	 49.706470	-21.967560	 21.142980	 50.074090	 19.111750	 6.857291	-20.661210	-5.654895	-23.442750	-91.776190	 78.527350	-180.000000	 2.408488	 39.644440	 3.799169	-2.973422	-2.986072	-108.302900	 4.667784	-23.930800	-0.608150	-4.130319	 21.525730	 0.991547	-5.167930	 0.731704	 3.519349	-1.378229	 35.397820	-2.634230	-17.782460	 7.766187	 7.567157	-26.868800	-22.249180	-16.877220	 89.782100	 78.203870	 180.000000	 96.438160	 5.339818	 6.975239	-16.705290	-5.581898	 27.343620	-83.863940	 1.533283	-91.871720	 5.716227	 19.173190	-3.685159	 5.027444	 0.246877	-9.377972	-2.350882	 35.473990	 5.254307
-0.412335	 0.218163	 1.259915	-174.735800	 12.306580	 11.170740	 21.931210	-7.266975	 178.516300	-8.005404	-35.981220	-5.057866	 112.345100	 70.306670	-125.731200	-2.385833	 28.452760	 0.000004	-5.376236	-45.850980	 161.334000	 5.923184	-49.779020	 3.362825	-4.376423	 70.698630	 20.951730	 2.384659	 28.388700	-0.000001	 48.694560	-21.039060	 21.241200	 48.964060	 18.797040	 7.428962	-20.362520	-5.448456	-23.196660	-91.776210	 78.527380	-180.000000	 1.485011	 38.971650	 6.217393	-3.015435	-3.007739	-108.899800	 4.875437	-24.737030	-0.515316	-4.130319	 21.525730	 0.991547	-5.167930	 0.731704	 3.519349	-1.378229	 35.397820	-2.634230	-17.602940	 7.758767	 7.986474	-26.685510	-22.026510	-17.546830	 89.782110	 78.203900	 180.000000	 93.593050	 2.696761	 13.505780	-16.945530	-3.248849	 16.408850	-83.863410	-2.679927	-91.024900	 5.716227	 19.173190	-3.685159	 5.027444	 0.246877	-9.377972	-2.350882	 35.473990	 5.254307
-0.413400	 0.221334	 1.260872	-174.331100	 12.111110	 10.427400	 22.153100	-6.017811	 179.019500	-8.083365	-34.673450	-4.943383	 111.333700	 70.086490	-124.395100	-2.385833	 28.452760	 0.000004	-4.254187	-45.672510	 162.707300	 5.897277	-50.054990	 3.356547	-3.277759	 71.098180	 19.745440	 2.384659	 28.388700	-0.000001	 47.901490	-20.212610	 21.478530	 48.027440	 18.479120	 7.896332	-20.101490	-5.248680	-22.984470	-91.776230	 78.527380	-180.000000	 0.649446	 38.548760	 8.148916	-3.049459	-3.024430	-109.379800	 5.049670	-25.470590	-0.430809	-4.130319	 21.525730	 0.991547	-5.167930	 0.731704	 3.519349	-1.378229	 35.397820	-2.634230	-17.473730	 7.689058	 8.437705	-26.506400	-21.712880	-18.235920	 89.782090	 78.203870	-180.000000	 90.518490	 0.952785	 22.071390	-16.866310	-0.095872	 0.502055	-83.743360	-9.712472	-90.873220	 5.716227	 19.173190	-3.685159	 5.027444	 0.246877	-9.377972	-2.350882	 35.473990	 5.254307
-0.415135	 0.225508	 1.262056	-173.558500	 11.545590	 9.774856	 22.549890	-4.241239	 179.124700	-8.199136	-32.938060	-4.789687	 111.466400	 69.871720	-124.067700	-2.385833	 28.452760	 0.000004	-3.053106	-45.029500	 164.106500	 5.916497	-50.245760	 3.380673	-2.174456	 71.745900	 18.286490	 2.384659	 28.388700	-0.000001	 46.228440	-19.167020	 21.131840	 46.648290	 17.915150	 8.907781	-19.684750	-5.130224	-22.733500	-91.776180	 78.527380	 180.000000	-0.780366	 38.421430	 11.138370	-3.043751	-2.893268	-110.088700	 5.273096	-26.850020	-0.357252	-4.130319	 21.525730	 0.991547	-5.167930	 0.731704	 3.519349	-1.378229	 35.397820	-2.634230	-17.100020	 7.676514	 8.329504	-26.132650	-21.988820	-17.613000	 89.782130	 78.203870	 180.000000	 86.082500	-2.357662	 22.377720	-16.623680	-0.093229	 0.499702	-83.319020	-9.132506	-89.610950	 5.716227	 19.173190	-3.685159	 5.027444	 0.246877	-9.377972	-2.350882	 35.473990	 5.254307
